<svg width="200" height="120" viewBox="0 0 200 120" fill="none" xmlns="http://www.w3.org/2000/svg">
<path d="M124.497 62.82C124.525 66.7089 125.69 70.5048 127.847 73.7404C130.005 76.976 133.061 79.5101 136.641 81.0308C135.2 85.5771 133.097 89.8865 130.401 93.8204C126.621 99.307 122.709 104.761 116.54 104.892C110.497 104.998 108.541 101.304 101.622 101.312C94.704 101.32 92.5437 104.785 86.8076 104.994C80.8465 105.219 76.3214 99.0779 72.5164 93.6118C64.7428 82.4464 58.8103 62.059 66.7885 48.2506C68.6697 44.9183 71.3817 42.1299 74.6605 40.1567C77.9392 38.1836 81.673 37.093 85.4983 36.9912C91.3531 36.8684 96.8519 40.8862 100.428 40.8862C104.004 40.8862 110.709 36.0624 117.751 36.758C121.007 36.8766 124.192 37.7436 127.059 39.2918C129.927 40.84 132.399 43.0277 134.284 45.6853C131.334 47.4831 128.889 50.0001 127.178 53.0005C125.466 56.0008 124.544 59.3865 124.497 62.8405V62.82ZM113.107 29.3689C116.519 25.3923 118.214 20.2248 117.82 15C112.674 15.4952 107.909 17.9344 104.499 21.8203C102.802 23.6948 101.503 25.8941 100.681 28.2852C99.8587 30.6763 99.5305 33.2094 99.7159 35.731C102.288 35.7662 104.834 35.2092 107.157 34.1032C109.48 32.9972 111.517 31.3717 113.111 29.3526" fill="black"/>
</svg>
