<svg width="200" height="120" viewBox="0 0 200 120" fill="none" xmlns="http://www.w3.org/2000/svg">
<path d="M70.3886 97.8127C70.3886 101.246 72.9501 103.383 75.909 103.383C79.017 103.383 81.3301 100.794 81.3301 97.8348C81.3301 94.6771 78.8183 92.3365 75.909 92.3365C72.6023 92.342 70.3886 94.8041 70.3886 97.8127ZM75.8648 105C73.3034 105 71.316 103.609 70.5155 102.665C68.8484 100.7 68.6772 99.0107 68.6772 96.002V86.2695H70.4162V93.4571H70.4659C72.0061 91.2434 74.297 90.7245 75.7655 90.7245C80.2149 90.7245 83.0027 94.2079 83.0027 97.8348C82.9972 101.743 79.8671 105 75.8648 105Z" fill="black"/>
<path d="M96.7262 96.94C96.1797 93.7326 93.5906 92.3415 91.2775 92.3415C88.9645 92.3415 86.403 93.9589 85.9282 96.94H96.7262ZM85.9117 98.5078C86.0828 101.218 88.4952 103.382 91.2831 103.382C93.7728 103.382 95.5338 101.892 96.257 100.225H98.0456C97.1016 102.935 94.5401 105 91.2831 105C87.4795 105 84.1948 101.914 84.1948 97.8895C84.1948 94.0362 87.3028 90.7295 91.2554 90.7295C95.3571 90.7295 98.4706 93.9369 98.4706 98.0165C98.4706 98.1931 98.443 98.3422 98.443 98.5133H85.9117V98.5078Z" fill="black"/>
<path d="M112.294 97.9122C112.294 94.4785 109.733 92.3421 106.774 92.3421C103.666 92.3421 101.353 94.9312 101.353 97.8901C101.353 101.048 103.865 103.383 106.774 103.383C110.081 103.383 112.294 100.921 112.294 97.9122ZM106.823 90.7246C109.385 90.7246 111.372 92.1158 112.173 93.0597C113.84 95.025 114.011 96.7143 114.011 99.7229V104.669H112.272V102.257H112.222C110.682 104.47 108.391 104.989 106.923 104.989C102.473 104.989 99.6855 101.506 99.6855 97.8791C99.6855 93.9817 102.821 90.7246 106.823 90.7246Z" fill="black"/>
<path d="M121.049 104.675H120.204C116.152 104.675 115.827 101.589 115.827 99.5517V86.2695H117.566V91.0723H120.823V92.6401H117.566V99.6566C117.566 100.827 117.665 103.063 120.199 103.063H121.043V104.675H121.049Z" fill="black"/>
<path d="M123.71 100.645C123.71 103.179 125.725 103.433 126.768 103.433C128.507 103.433 129.578 102.439 129.578 101.02C129.578 99.5297 128.557 98.8838 126.592 98.2876C124.825 97.7411 122.413 96.9461 122.413 94.357C122.413 92.3697 123.953 90.7246 126.641 90.7246C129.004 90.7246 130.82 92.2924 130.82 94.4288H129.081C128.954 92.7616 127.839 92.2924 126.542 92.2924C125.123 92.2924 124.157 93.115 124.157 94.2301C124.157 95.7206 125.576 96.245 127.144 96.6922C129.606 97.4154 131.323 98.5084 131.323 101.042C131.323 103.157 129.782 104.995 126.774 104.995C124.19 104.995 121.977 103.676 121.977 100.645H123.71Z" fill="black"/>
<path d="M109.44 46.4785C109.44 41.2617 105.211 37.0386 99.9946 37.0386C94.7778 37.0386 90.5547 41.2672 90.5547 46.4785C90.5547 51.6953 94.7833 55.9239 99.9946 55.9239C105.211 55.9184 109.44 51.6898 109.44 46.4785Z" fill="black"/>
<path d="M99.9999 15.0005C96.7097 15.0005 93.5355 15.5084 90.5545 16.4413V34.3496V34.3661C93.3423 31.9095 96.914 30.6564 100.613 30.7723C104.289 30.8883 107.822 32.3457 110.549 34.8022C115.38 39.1689 117.025 46.0584 114.684 52.1309C112.344 58.2088 106.508 62.2167 99.9944 62.2167C95.0812 62.2167 90.4385 59.9257 87.463 56.0117C85.978 54.0575 85.0175 51.8548 84.5206 49.459C84.0183 47.0576 84.0183 44.6672 84.0183 42.2438V19.3506C74.744 24.8268 68.5225 34.9237 68.5225 46.4779C68.5225 63.8618 82.6161 77.9554 99.9999 77.9554C117.384 77.9554 131.477 63.8618 131.477 46.4779C131.477 29.0941 117.384 15.0005 99.9999 15.0005Z" fill="black"/>
</svg>
