<svg width="200" height="120" viewBox="0 0 200 120" fill="none" xmlns="http://www.w3.org/2000/svg">
<g clip-path="url(#clip0_101_146)">
<path d="M83.5709 67.3636H81.8241V82.2055H83.5709C85.0313 82.1858 86.4539 81.7382 87.6625 80.918C88.871 80.0979 89.8125 78.9413 90.3703 77.5915C90.9281 76.2416 91.0777 74.7578 90.8006 73.3238C90.5235 71.8898 89.8319 70.5685 88.8114 69.5236C87.4084 68.1549 85.5309 67.381 83.5709 67.3636Z" fill="black"/>
<path d="M113.651 50.7955C114.445 49.9773 115.239 49.2082 115.398 48.9668L111.43 45.0805L109.683 46.8232C109.18 47.3945 108.898 48.1276 108.89 48.8891C108.883 49.2444 108.951 49.5972 109.087 49.9252C109.224 50.2533 109.427 50.5496 109.683 50.7955C109.942 51.0594 110.251 51.2691 110.591 51.4123C110.932 51.5554 111.298 51.6292 111.667 51.6292C112.037 51.6292 112.403 51.5554 112.743 51.4123C113.084 51.2691 113.393 51.0594 113.651 50.7955" fill="black"/>
<path d="M94.5223 50.9509C94.5268 47.5605 93.1848 44.3071 90.7914 41.9059C89.6185 40.722 88.2223 39.7826 86.6837 39.1422C85.1451 38.5017 83.4947 38.173 81.8282 38.175V63.7309C85.1923 63.6787 88.4024 62.3124 90.7723 59.9241C93.1422 57.5359 94.4837 54.3153 94.51 50.9509" fill="black"/>
<path d="M112.461 60.9532C111.063 60.9478 109.677 61.2182 108.383 61.7488C107.089 62.2795 105.913 63.0601 104.921 64.0459C102.937 66.0544 101.824 68.7641 101.824 71.5875C101.824 74.4109 102.937 77.1206 104.921 79.1291C106.408 80.61 108.3 81.6167 110.359 82.022C112.418 82.4272 114.551 82.2127 116.488 81.4056C118.425 80.5985 120.079 79.2351 121.241 77.4878C122.403 75.7405 123.02 73.6879 123.015 71.5895C123.013 68.766 121.901 66.0565 119.919 64.0459C117.94 62.0689 115.258 60.9568 112.461 60.9532" fill="black"/>
<path d="M122.537 81.6818C120.208 83.9828 117.154 85.4063 113.895 85.7102C110.635 86.0141 107.371 85.1796 104.657 83.3487C101.943 81.5178 99.9466 78.8035 99.0078 75.6672C98.0689 72.5308 98.2453 69.1662 99.5069 66.1452C100.768 63.1243 103.037 60.6335 105.928 59.0964C108.818 57.5592 112.152 57.0707 115.362 57.7137C118.572 58.3567 121.46 60.0917 123.536 62.6236C125.611 65.1555 126.746 68.328 126.746 71.6018C126.747 73.477 126.375 75.3337 125.653 77.0641C124.93 78.7945 123.871 80.3641 122.537 81.6818M91.4459 82.635C90.4196 83.6758 89.1958 84.5014 87.8464 85.0633C86.497 85.6253 85.049 85.9124 83.5873 85.9077H78.175L78.0973 34.5218H81.7464C83.9102 34.5005 86.0564 34.911 88.0596 35.7294C90.0628 36.5477 91.8826 37.7574 93.4125 39.2877C94.9424 40.818 96.1517 42.6381 96.9695 44.6415C97.7874 46.6448 98.1973 48.7912 98.1755 50.955C98.1623 53.9279 97.3529 56.8431 95.8312 59.3971C94.3096 61.9512 92.1314 64.0508 89.5232 65.4777C91.053 66.4644 92.3307 67.7953 93.2541 69.3641C94.2064 71.0315 94.6991 72.9217 94.6818 74.8418C94.6775 76.2876 94.3881 77.7184 93.83 79.0522C93.2719 80.3859 92.4562 81.5965 91.4296 82.6145M107.302 38.8091C107.331 37.5083 107.839 36.264 108.73 35.3155C109.209 34.8346 109.778 34.4538 110.405 34.1953C111.032 33.9368 111.705 33.8059 112.383 33.81C113.043 33.8007 113.697 33.9221 114.31 34.1671C114.922 34.4122 115.48 34.776 115.95 35.2377V35.3973L115.157 36.1909L113.966 37.3814H113.909C113.496 37.0017 112.964 36.7776 112.404 36.7473C111.861 36.7473 111.341 36.9628 110.957 37.3464C110.574 37.73 110.358 38.2502 110.358 38.7927C110.345 39.0756 110.396 39.3578 110.505 39.6189C110.615 39.8799 110.781 40.1134 110.992 40.3023L117.542 46.9091L119.522 44.925L121.588 46.9705L119.604 49.0364L122.467 51.8141L122.385 51.8918L120.401 53.8759L117.538 51.0982C117.059 51.5768 116.585 52.0514 115.713 52.845C114.73 53.8257 113.441 54.4419 112.06 54.5918C111.236 54.6554 110.408 54.5312 109.638 54.2287C108.869 53.9261 108.178 53.453 107.617 52.845C107.074 52.3352 106.638 51.7211 106.338 51.0393C106.037 50.3575 105.876 49.622 105.866 48.8768C105.904 47.3283 106.53 45.8523 107.617 44.7491L109.36 43.0064C108.731 42.4982 108.221 41.8575 107.867 41.1299C107.514 40.4023 107.325 39.6057 107.315 38.7968M100 15C91.0999 15 82.3996 17.6392 74.9994 22.5839C67.5991 27.5285 61.8314 34.5566 58.4254 42.7792C55.0195 51.0019 54.1283 60.0499 55.8647 68.7791C57.601 77.5082 61.8869 85.5264 68.1802 91.8198C74.4736 98.1132 82.4918 102.399 91.221 104.135C99.9501 105.872 108.998 104.981 117.221 101.575C125.443 98.1686 132.471 92.4009 137.416 85.0007C142.361 77.6004 145 68.9002 145 60C145 48.0653 140.259 36.6193 131.82 28.1802C123.381 19.7411 111.935 15 100 15" fill="black"/>
</g>
<defs>
<clipPath id="clip0_101_146">
<rect width="90" height="90" fill="white" transform="translate(55 15)"/>
</clipPath>
</defs>
</svg>
