<svg width="200" height="120" viewBox="0 0 200 120" fill="none" xmlns="http://www.w3.org/2000/svg">
<path d="M74.209 73.7255V66.8655H67.7436V72.5455C67.7436 75.3873 70.289 80 77.5363 80C84.7836 80 87.3309 76.4764 87.3309 72.5455V40H80.8672V73.68C80.8702 74.5676 80.5231 75.4207 79.9013 76.0541C79.2794 76.6875 78.433 77.0502 77.5454 77.0636C76.661 77.0622 75.8133 76.7099 75.1885 76.084C74.5636 75.4581 74.2127 74.6099 74.2127 73.7255" fill="black"/>
<path d="M70.9763 62.5691C71.7174 62.5702 72.4422 62.3514 73.0589 61.9404C73.6756 61.5294 74.1565 60.9447 74.4407 60.2603C74.725 59.5759 74.7999 58.8226 74.6558 58.0956C74.5118 57.3686 74.1553 56.7008 73.6315 56.1765C73.1077 55.6522 72.4402 55.2951 71.7134 55.1503C70.9866 55.0056 70.2331 55.0797 69.5485 55.3633C68.8638 55.6469 68.2786 56.1272 67.867 56.7435C67.4555 57.3598 67.236 58.0844 67.2363 58.8254C67.2363 59.8177 67.6302 60.7693 68.3315 61.4713C69.0328 62.1733 69.9841 62.5681 70.9763 62.5691" fill="black"/>
<path d="M102.218 56.9709H101.924H98.6928V43.7255H102.218C104.569 43.7255 105.156 44.2182 105.156 50.3945C105.156 56.5709 104.569 56.9709 102.218 56.9709ZM102.609 76.1818H101.924H98.6928V60.2982H102.609C105.155 60.2982 105.155 62.1055 105.155 68.2855C105.155 74.4655 105.155 76.1873 102.609 76.1873M111.618 53.1382V46.4218C111.582 44.7231 110.889 43.1045 109.683 41.9068C108.478 40.7091 106.855 40.0255 105.156 40H92.2291V79.4127H105.156C110.004 79.4127 111.618 76.2745 111.618 74.2655V62.4473C111.518 61.3885 111.026 60.4053 110.239 59.6898C109.452 58.9743 108.427 58.578 107.364 58.5782C109.909 58.5782 111.622 55.0982 111.622 53.1382" fill="black"/>
<path d="M76.9509 40H65L70.9745 53.6273L76.9509 40Z" fill="black"/>
<path d="M135.909 66.8636H129.444V73.7255C129.444 74.6089 129.093 75.4561 128.468 76.0808C127.843 76.7054 126.996 77.0564 126.113 77.0564C125.229 77.0564 124.382 76.7054 123.757 76.0808C123.133 75.4561 122.782 74.6089 122.782 73.7255V40H116.322V79.4127H135.909V66.8636Z" fill="black"/>
</svg>
