<svg width="200" height="120" viewBox="0 0 200 120" fill="none" xmlns="http://www.w3.org/2000/svg">
<path d="M79.8759 72.3202C74.8 72.3202 70.096 70.7992 66.9544 67.9802C65.8331 66.9731 64.9395 65.7383 64.3334 64.3583C63.7274 62.9783 63.4227 61.4849 63.4399 59.9778C63.4368 58.4771 63.748 56.9924 64.3533 55.6192C64.9586 54.2459 65.8446 53.0146 66.9544 52.0045C69.872 49.3456 75.024 47.6802 79.8759 47.6802C85.244 47.6802 89.5415 49.032 92.8253 52.0112C93.9322 53.0201 94.8136 54.2514 95.4119 55.6244C96.0103 56.9974 96.3119 58.4813 96.2973 59.9789C96.2892 61.478 95.9773 62.9598 95.3806 64.335C94.7838 65.7102 93.9146 66.9502 92.8253 67.9802C89.7666 70.8182 84.9607 72.3202 79.8759 72.3202V69.0722C82.4478 69.1344 84.9399 68.177 86.8087 66.4088C87.6526 65.5705 88.3137 64.5665 88.7505 63.46C89.1873 62.3536 89.3902 61.1687 89.3466 59.98C89.3727 58.7916 89.1617 57.6099 88.7259 56.504C88.2902 55.3981 87.6384 54.3901 86.8087 53.5389C84.8997 51.8339 82.4298 50.8915 79.8703 50.8915C77.3108 50.8915 74.8408 51.8339 72.9319 53.5389C72.1053 54.392 71.4559 55.4005 71.0215 56.5061C70.587 57.6116 70.376 58.7924 70.4007 59.98C70.3786 61.1655 70.5908 62.3436 71.0252 63.4468C71.4595 64.5501 72.1075 65.5566 72.9319 66.4088C74.8104 68.1685 77.3024 69.1243 79.8759 69.0722V72.3202ZM42.8084 47.6925C39.9189 47.6752 37.0562 48.2468 34.3949 49.3725C31.978 50.4466 30 52.1893 30 55.08C29.9942 56.5974 30.5697 58.0595 31.6084 59.1658C32.9261 60.4372 34.6011 61.2755 36.4087 61.5682C37.7325 61.8571 40.5639 62.3018 43.3829 62.5963C46.1829 62.8909 48.9348 63.172 50.057 63.4554C50.953 63.6794 52.4448 63.9919 52.4448 65.6707C52.4175 66.1993 52.2238 66.7057 51.8912 67.1175C51.5587 67.5293 51.1045 67.8254 50.5935 67.9634C48.8243 68.6661 46.9298 68.9982 45.0271 68.9389C42.7745 68.873 40.5429 68.4853 38.4 67.7875C36.8961 67.3288 35.5607 66.4371 34.5607 65.2238C34.0602 64.5097 33.783 63.6631 33.7644 62.7912H30.6832V71.4152H34.1048V70.2482C34.1049 70.1617 34.128 70.0769 34.1716 70.0022C34.2152 69.9276 34.2779 69.8659 34.3532 69.8234C34.4285 69.7809 34.5137 69.7592 34.6001 69.7604C34.6866 69.7616 34.7711 69.7858 34.8452 69.8304C36.459 70.5309 38.1372 71.0725 39.856 71.4477C41.5543 71.874 43.2985 72.0907 45.0495 72.0928C47.4078 72.1367 49.7581 71.8055 52.0125 71.1117C53.5056 70.7002 54.9067 70.008 56.1408 69.0722C56.8361 68.5389 57.398 67.8516 57.7824 67.0643C58.1668 66.277 58.3633 65.4112 58.3562 64.5351C58.3675 62.8698 57.7239 61.2669 56.5642 60.0719C55.9173 59.446 55.1671 58.9367 54.3466 58.5666C53.4691 58.1693 52.5579 57.8511 51.6239 57.6157C49.861 57.1823 45.8727 56.6491 43.9664 56.4487C41.6646 56.2891 39.3756 55.9789 37.1143 55.5202C36.764 55.439 36.4498 55.2457 36.2195 54.9695C35.9892 54.6933 35.8554 54.3494 35.8386 53.9903C35.8555 53.6147 35.9725 53.2506 36.1775 52.9355C36.3825 52.6204 36.668 52.3659 37.0045 52.1983C38.9716 51.2791 41.1323 50.8509 43.3012 50.9506C45.8046 50.9199 48.2875 51.4044 50.5957 52.3741C51.216 52.6445 51.7997 52.9923 52.3328 53.409C53.2005 54.1502 53.8012 55.1554 54.0431 56.2706H56.8061V48.7677H53.7205V49.6402C53.7205 49.9213 53.4293 50.2875 52.8794 49.9851C49.7348 48.4812 46.2941 47.6979 42.8084 47.6925ZM110.428 49.0555L125.481 62.6355L125.325 53.4919C125.311 52.2935 125.09 51.7928 123.792 51.7928H120.963V49.0578H133.833V51.7928H131.072C129.748 51.7928 129.665 52.2162 129.65 53.4919L129.883 70.9638H125.476L108.138 55.4944V66.4704C108.152 67.6643 108.209 68.2254 109.438 68.2254H112.529V70.9594H99.8947V68.2266H102.849C103.952 68.2266 103.909 67.1738 103.909 66.4088V53.596C103.909 52.7695 103.797 51.7951 102.06 51.7951H99.664V49.0555H110.428ZM148.539 68.2221C148.794 68.2226 149.048 68.2069 149.301 68.175C149.432 68.1355 149.553 68.0679 149.655 67.977C149.757 67.8861 149.838 67.7741 149.893 67.6487C149.932 67.4539 149.952 67.2559 149.952 67.0573V62.7352C149.952 62.6311 149.944 62.5863 149.767 62.3544C149.573 62.1013 141.884 53.3944 141.532 53.0058C141.246 52.6465 140.886 52.3525 140.477 52.1434C140.068 51.9342 139.62 51.8147 139.161 51.7928H136.488V49.0567H151.582V51.7895H149.762C149.342 51.7895 149.062 52.1893 149.426 52.6328C149.426 52.6328 154.504 58.7043 154.552 58.7682C154.6 58.832 154.639 58.8477 154.704 58.7895C154.769 58.7312 159.909 52.6877 159.95 52.6407C160.012 52.5606 160.049 52.4645 160.057 52.3639C160.066 52.2633 160.045 52.1623 159.998 52.0731C159.951 51.9838 159.879 51.9099 159.791 51.8602C159.703 51.8106 159.603 51.7872 159.502 51.7928H157.636V49.0567H170V51.7928H167.237C166.816 51.7556 166.393 51.8325 166.012 52.0154C165.631 52.1983 165.306 52.4804 165.072 52.8322C164.727 53.2219 156.954 62.0901 156.744 62.3309C156.661 62.4484 156.625 62.5925 156.642 62.7352V67.0562C156.642 67.2544 156.662 67.4521 156.701 67.6464C156.756 67.7719 156.837 67.8839 156.94 67.9746C157.042 68.0653 157.164 68.1326 157.295 68.1717C157.545 68.2045 157.796 68.2206 158.048 68.2199H160.875V70.956H145.861V68.2199H148.54L148.539 68.2221Z" fill="black"/>
</svg>
