<svg width="200" height="120" viewBox="0 0 200 120" fill="none" xmlns="http://www.w3.org/2000/svg">
<path d="M110.607 40.5044V33.7126C110.607 32.4627 110.111 31.2641 109.227 30.3803C108.343 29.4965 107.144 29 105.895 29C104.645 29 103.446 29.4965 102.562 30.3803C101.679 31.2641 101.182 32.4627 101.182 33.7126V40.5044C96.0432 41.4558 91.3124 43.9399 87.6116 47.63C83.9108 51.3201 81.413 56.0437 80.4467 61.1798H73.732C72.4867 61.1798 71.2924 61.6745 70.4118 62.555C69.5313 63.4356 69.0366 64.6299 69.0366 65.8752C69.0366 67.1205 69.5313 68.3148 70.4118 69.1954C71.2924 70.076 72.4867 70.5707 73.732 70.5707H80.3467C81.1744 75.2381 83.2641 79.59 86.3892 83.1542C89.5144 86.7184 93.5558 89.359 98.0751 90.7895C102.594 92.2201 107.419 92.386 112.026 91.2693C116.633 90.1527 120.846 87.796 124.209 84.4549C127.571 81.1138 129.955 76.9158 131.102 72.3162C132.248 67.7166 132.113 62.891 130.712 58.3625C129.31 53.8341 126.696 49.7759 123.152 46.6278C119.608 43.4797 115.269 41.362 110.607 40.5044M105.997 82.355C102.77 82.3346 99.6204 81.3583 96.9472 79.5492C94.274 77.7401 92.1969 75.1794 90.9781 72.1905C89.7593 69.2017 89.4535 65.9187 90.0994 62.7562C90.7453 59.5936 92.3139 56.6934 94.607 54.4218C96.9001 52.1502 99.815 50.6091 102.983 49.993C106.152 49.377 109.432 49.7137 112.409 50.9606C115.386 52.2075 117.927 54.3087 119.711 56.9988C121.495 59.689 122.442 62.8474 122.432 66.0751C122.422 68.2233 121.989 70.3485 121.158 72.3293C120.326 74.3101 119.113 76.1077 117.587 77.6195C116.061 79.1313 114.252 80.3277 112.263 81.1402C110.275 81.9527 108.146 82.3655 105.997 82.355" fill="black"/>
<path d="M95.6754 65.9752C95.6687 67.9983 96.2624 69.978 97.3815 71.6635C98.5006 73.349 100.095 74.6645 101.962 75.4435C103.829 76.2224 105.885 76.4297 107.871 76.0392C109.856 75.6486 111.68 74.6778 113.113 73.2496C114.546 71.8214 115.523 70.0001 115.92 68.0163C116.318 66.0325 116.117 63.9754 115.345 62.1056C114.572 60.2358 113.262 58.6373 111.58 57.5125C109.898 56.3878 107.921 55.7874 105.897 55.7874V55.7874C103.194 55.7941 100.603 56.8686 98.6889 58.7767C96.7744 60.6848 95.6913 63.2721 95.6754 65.9752ZM102.69 65.9752C102.694 65.1797 103.012 64.4181 103.576 63.8568C104.139 63.2954 104.902 62.9798 105.698 62.9791C106.487 62.9972 107.24 63.3184 107.799 63.8761C108.358 64.4339 108.682 65.1855 108.702 65.9752C108.698 66.7701 108.38 67.5312 107.817 68.0925C107.255 68.6538 106.492 68.9697 105.698 68.9712V68.9712C105.301 68.9789 104.908 68.9068 104.54 68.7591C104.173 68.6114 103.838 68.3912 103.558 68.1116C103.277 67.832 103.056 67.4987 102.907 67.1317C102.757 66.7646 102.684 66.3713 102.69 65.9752" fill="black"/>
<path d="M86.0561 42.101C86.0595 43.0332 85.7862 43.9455 85.2707 44.7222C84.7553 45.499 84.0209 46.1053 83.1606 46.4644C82.3003 46.8235 81.3528 46.9192 80.4381 46.7394C79.5234 46.5597 78.6826 46.1125 78.0222 45.4545C77.3618 44.7965 76.9116 43.9573 76.7284 43.0433C76.5453 42.1292 76.6376 41.1814 76.9935 40.3198C77.3495 39.4582 77.9532 38.7216 78.728 38.2033C79.5029 37.6851 80.4142 37.4084 81.3464 37.4084C81.964 37.4065 82.5758 37.5265 83.147 37.7614C83.7181 37.9964 84.2373 38.3417 84.6748 38.7776C85.1123 39.2135 85.4595 39.7314 85.6965 40.3017C85.9335 40.872 86.0557 41.4834 86.0561 42.101" fill="black"/>
</svg>
