<svg width="200" height="120" viewBox="0 0 200 120" fill="none" xmlns="http://www.w3.org/2000/svg">
<path fill-rule="evenodd" clip-rule="evenodd" d="M73.3078 74.6947C77.3162 73.9004 79.7564 69.8793 80.3649 65.9393C80.5397 64.9765 79.2338 64.4506 78.3615 64.8891C77.5351 65.3037 76.7721 65.8344 76.096 66.4651C74.0979 68.1084 72.741 70.4016 72.2624 72.944C72.0892 73.8194 72.7851 74.7821 73.3078 74.6916V74.6947ZM101.449 75.3954C101.911 75.4793 102.388 75.3799 102.779 75.1184C103.169 74.8569 103.443 74.4537 103.541 73.9941C104.014 72.2752 103.859 70.4443 103.104 68.8292C102.844 69.0913 100.578 71.7175 99.8809 72.7676C99.4456 73.2935 100.23 75.0443 101.449 75.3954V75.3954ZM127.064 73.9941C127.326 74.8695 128.545 74.7885 129.155 74.431C130.806 73.5931 132.207 72.3346 133.217 70.7823C134.227 69.2301 134.809 67.439 134.906 65.5897C134.906 64.8891 133.953 64.4506 133.158 64.7954C131.303 65.5724 129.745 66.9216 128.71 68.6465C128.082 69.3754 127.611 70.2259 127.326 71.1448C127.042 72.0638 126.949 73.0315 127.055 73.9878L127.064 73.9941ZM157.035 65.415C159.009 63.9806 160.794 62.3041 162.35 60.4248C163.582 58.839 164.553 57.0657 165.224 55.1724C163.638 56.3971 162.204 57.8079 160.955 59.3746C159.462 61.2596 158.15 63.2809 157.035 65.4118V65.415ZM91.7768 60.9522L91.8642 60.8649C92.7364 59.6384 93.0843 57.975 91.8642 57.3697C91.6894 57.2807 91.4288 57.8066 91.4288 58.0687C91.2657 58.5455 91.2122 59.053 91.2724 59.5534C91.3327 60.0538 91.5051 60.5341 91.7768 60.9586V60.9522ZM90.0292 63.7532C89.4083 62.7727 89.0224 61.6622 88.9014 60.508C88.7804 59.3539 88.9277 58.1874 89.3317 57.0996C90.2023 54.9119 93.5133 54.1239 94.7334 56.5753C96.0393 59.2888 94.1233 61.6592 93.6006 62.703C93.4259 63.0525 95.1687 62.5283 95.7788 62.5283C96.0587 62.4973 96.3417 62.5447 96.5962 62.6652C96.8507 62.7857 97.0668 62.9745 97.2204 63.2105C97.3739 63.4466 97.4588 63.7207 97.4657 64.0022C97.4727 64.2837 97.4012 64.5616 97.2595 64.8049C95.2561 68.1317 91.8578 70.4068 91.4225 74.4342C91.3351 75.3985 93.7754 74.8727 96.7368 72.4213C96.8242 72.3339 102.051 65.9424 106.059 60.9522C106.93 59.8147 110.066 60.9522 109.021 62.4409C108.15 63.7532 107.273 64.7175 106.757 65.5039C105.972 66.6431 107.975 67.4311 107.802 71.7206C109.283 70.5831 111.722 69.0071 111.809 68.8323C114.337 63.5784 116.95 57.4507 119.476 52.022C120.086 50.7081 123.485 51.3214 122.7 53.0721C121.132 56.6627 119.476 60.5137 117.996 64.0169C118.995 63.5053 119.955 62.9212 120.87 62.2693C122.787 61.656 123.57 63.3194 123.833 64.5444C124.53 67.3469 121.48 71.198 120.086 73.9179C119.738 74.6185 120.522 74.2674 120.87 74.0052C121.889 73.3646 122.8 72.5667 123.57 71.6412C126.011 64.9876 134.026 59.8226 137.162 63.6737C137.424 63.3242 137.685 62.7983 137.772 62.7983C138.47 62.0977 141.258 62.3614 140.822 63.6737C140.822 63.7611 137.947 69.4519 136.374 72.4292C136.024 73.1298 136.374 74.8806 137.327 74.1768C138.715 73.1349 139.973 71.93 141.073 70.5879C142.821 65.6851 148.479 55.792 156.058 51.7646C157.366 51.064 159.712 51.9394 158.934 53.9523C157.055 59.513 153.376 64.2886 148.479 67.5232C148.393 67.6106 148.305 67.6106 148.305 67.698C147.352 68.3986 144.472 70.062 144.297 70.6753C143.99 71.6354 143.901 72.652 144.036 73.6509C144.472 75.1396 145.952 74.9648 146.998 74.1768C150.919 71.2885 152.399 66.91 154.926 62.8825C156.908 59.5784 159.449 56.6434 162.435 54.2081C163.916 52.9816 165.397 51.4056 167.4 51.6661C167.764 51.7281 168.091 51.9242 168.317 52.2158C168.543 52.5073 168.651 52.873 168.62 53.2405C167.242 58.5734 164.074 63.2714 159.647 66.5493C157.9 67.949 156.162 69.2629 154.594 70.313C154.158 70.5768 153.2 76.0912 157.207 74.1657C159.125 73.2903 161.128 70.4004 162.261 69.0007C162.871 68.3001 163.829 69.2629 163.393 70.2256C162.244 72.6337 160.542 74.7364 158.427 76.3629C157.709 77.0444 156.814 77.5119 155.844 77.7129C154.875 77.9139 153.868 77.8403 152.938 77.5004C152.315 77.1659 151.778 76.6913 151.37 76.114C150.962 75.5367 150.693 74.8724 150.585 74.1736C149.164 75.9007 147.25 77.1528 145.098 77.7626C144.571 77.9713 143.999 78.0441 143.437 77.9742C142.874 77.9043 142.338 77.6941 141.878 77.3627C141.418 77.0313 141.049 76.5896 140.805 76.0781C140.56 75.5666 140.448 75.0018 140.479 74.4358C138.476 76.0992 134.555 80.214 132.552 75.837C130.286 77.0635 126.365 79.7771 123.664 75.3112C121.836 76.5377 119.657 78.7269 117.567 77.4131C116.899 77.0583 116.392 76.462 116.149 75.746C115.906 75.03 115.945 74.2483 116.259 73.5604C117.392 71.0184 119.657 66.9068 119.831 66.6447C120.093 66.1188 119.395 65.8503 118.96 66.2062C117.13 67.6948 115.649 68.9213 115.562 69.0961C114.608 71.1964 112.861 74.9616 111.99 76.8808C111.467 78.1073 109.202 78.02 108.592 77.1446C107.721 75.9181 108.941 74.6932 109.464 73.554C106.936 75.3016 105.108 77.1446 102.407 77.6688C101.364 77.9172 100.267 77.8003 99.2996 77.3377C98.3322 76.8751 97.5526 76.0948 97.0911 75.1269C94.565 76.4408 91.6894 78.9795 88.9886 76.9666C86.6372 75.219 87.8574 70.8373 93.2591 65.585C93.2792 65.5694 93.2955 65.5494 93.3067 65.5265C93.3179 65.5037 93.3237 65.4786 93.3237 65.4531C93.3237 65.4277 93.3179 65.4025 93.3067 65.3797C93.2955 65.3568 93.2792 65.3368 93.2591 65.3212L92.3868 64.9717C90.3835 67.6853 86.1145 74.2515 83.5011 76.0928C80.6255 78.02 78.7079 78.5442 77.402 76.0928C74.5264 78.1947 70.6054 78.5442 69.0373 75.2174C66.686 77.1446 65.1179 78.4569 61.6322 77.7594C60.8703 77.5373 60.1984 77.0793 59.7131 76.4513C59.2278 75.8233 58.9541 75.0575 58.9314 74.2642C58.8022 71.7137 58.9777 69.1568 59.4541 66.6478C57.2759 70.3241 55.2725 74.4326 52.2222 77.591C51.6995 78.1169 49.8709 77.7658 50.0456 76.7156C50.7415 72.6008 53.007 66.8226 52.7465 62.9699C49.6961 69.8015 45.0793 80.3935 35.9314 77.3289C29.4843 75.1316 31.0476 63.4942 40.0255 67.0768C41.0709 67.5153 40.4608 69.4408 39.5028 69.0913C35.1465 67.3437 34.1885 74.6074 38.6322 74.8695C39.7641 74.9136 40.8871 74.6524 41.8833 74.1132C42.8795 73.574 43.7124 72.7767 44.2944 71.8048C50.2188 62.7872 51.9616 54.0317 58.9314 43.6144C59.8846 42.1258 62.3297 43.6144 61.5448 45.1905C60.3039 47.6637 59.2837 50.2416 58.4961 52.8942C57.4232 56.2017 56.8936 59.6613 56.928 63.1383C61.5512 56.0462 66.1585 49.1289 72.7835 43.3507C73.0457 43.0886 73.6557 43.1759 74.091 43.3507C74.2379 43.4097 74.3691 43.5017 74.4746 43.6197C74.58 43.7377 74.6568 43.8784 74.6989 44.0309C74.741 44.1835 74.7474 44.3437 74.7174 44.499C74.6875 44.6544 74.6221 44.8008 74.5264 44.9267C67.5566 55.8683 60.9348 67.0768 62.5044 73.732C62.854 75.1316 63.812 74.8695 64.9447 74.6947C66.4745 74.0393 67.8191 73.0166 68.8594 71.7175C69.589 69.5544 70.8358 67.6022 72.4915 66.0307C74.1473 64.4591 76.1618 63.3157 78.36 62.6998C79.0881 62.4958 79.8568 62.4853 80.5902 62.6695C81.3236 62.8537 81.9962 63.2261 82.5415 63.75C82.6889 63.4576 82.9037 63.2045 83.1682 63.0115C83.4327 62.8185 83.7393 62.6911 84.0627 62.6399C84.3861 62.5887 84.717 62.6151 85.0282 62.7169C85.3394 62.8188 85.6219 62.9932 85.8524 63.2257C85.9389 63.3872 85.9842 63.5676 85.9842 63.7508C85.9842 63.934 85.9389 64.1144 85.8524 64.2759C84.1969 67.4279 82.8036 70.1414 81.1482 73.0313C81.0608 73.2935 81.3229 73.732 81.6709 73.643C84.0238 72.8486 87.2473 67.7774 90.0355 63.75L90.0292 63.7532ZM146.833 65.5929C148.729 64.3977 150.433 62.9214 151.886 61.2144C153.336 59.367 154.537 57.3373 155.458 55.1772C153.753 56.4832 152.203 57.9812 150.841 59.6415C149.406 61.5579 148.068 63.5453 146.833 65.5961V65.5929Z" fill="black"/>
</svg>
