<svg width="200" height="120" viewBox="0 0 200 120" fill="none" xmlns="http://www.w3.org/2000/svg">
<path d="M60.4508 56.797H65.4433C66.032 56.8065 66.6166 56.6973 67.1621 56.4759C67.7076 56.2545 68.2029 55.9254 68.6185 55.5084C69.0828 54.9471 69.432 54.2997 69.6459 53.6033C69.8599 52.9069 69.9344 52.1752 69.8652 51.45C69.9332 50.8225 69.8738 50.1876 69.6905 49.5836C69.5071 48.9796 69.2037 48.4189 68.7984 47.935C68.3463 47.4967 67.8116 47.1527 67.2253 46.9231C66.639 46.6934 66.0129 46.5827 65.3834 46.5974H59.8856V56.797H60.4508ZM60.5162 72.7288H65.198C65.7805 72.7393 66.359 72.632 66.899 72.4134C67.439 72.1948 67.9293 71.8693 68.3404 71.4566C68.8218 70.9094 69.1906 70.2727 69.4257 69.5829C69.6609 68.8931 69.7577 68.1636 69.7107 67.4364C69.7554 66.8066 69.673 66.1744 69.4685 65.5771C69.264 64.9798 68.9416 64.4298 68.5203 63.9596C68.0724 63.5257 67.5427 63.1851 66.9621 62.9577C66.3815 62.7302 65.7614 62.6204 65.138 62.6346H59.9583V72.7324L60.5162 72.7288ZM72.148 60.2301C72.148 60.2301 78.5745 61.5569 78.5745 69.421C78.5745 75.7312 74.5579 79.5007 67.8315 79.5007H51V40.1H67.6952C69.2167 39.9761 70.7477 40.1562 72.199 40.6299C73.6502 41.1035 74.9927 41.8612 76.1482 42.8589C77.1213 43.9033 77.8772 45.1308 78.3717 46.4699C78.8662 47.809 79.0896 49.2331 79.0289 50.6594C79.0289 60.1102 72.1407 60.0975 72.1407 60.0975V60.2301" fill="black"/>
<path d="M96.8708 72.0364C95.5714 73.4666 93.8231 74.4109 91.9146 74.7135C91.3347 74.7399 90.7555 74.6479 90.2124 74.4431C89.6693 74.2383 89.1735 73.925 88.7555 73.5222C88.3375 73.1195 88.0059 72.6358 87.7809 72.1007C87.556 71.5655 87.4425 70.9902 87.4473 70.4097C87.5903 69.3109 88.0285 68.2714 88.7153 67.4019C89.4021 66.5324 90.3118 65.8653 91.3476 65.4717L96.8708 72.0364ZM102.141 79.3607H111.14L104.619 71.7274C106.558 69.6205 107.764 66.9427 108.055 64.0941H101.707C101.573 65.1896 101.185 66.2388 100.575 67.1583L97.3543 63.2635C98.8891 62.6334 100.208 61.5707 101.15 60.2048C102.091 58.839 102.616 57.2287 102.659 55.5702C102.638 54.4552 102.391 53.3561 101.933 52.3394C101.475 51.3227 100.815 50.4095 99.9936 49.6552C99.1723 48.9008 98.2065 48.3209 97.1546 47.9506C96.1027 47.5802 94.9866 47.4272 93.8738 47.5007C89.3938 47.5007 85.0046 50.5576 85.0046 55.3957C85.1324 57.6552 86.111 59.7824 87.7435 61.3497C84.0068 63.0908 81.1389 65.9751 81.1389 70.437C81.1119 71.7293 81.3526 73.0131 81.8459 74.2078C82.3392 75.4025 83.0744 76.4822 84.0053 77.379C84.9362 78.2757 86.0426 78.9701 87.2549 79.4184C88.4672 79.8668 89.7591 80.0594 91.0495 79.9841C94.3229 80.0356 97.498 78.8654 99.955 76.7018L102.141 79.3607ZM93.6903 59.4741C92.5998 58.0619 91.1913 56.906 91.1913 54.945C91.2544 54.2109 91.5938 53.5283 92.1409 53.0348C92.688 52.5414 93.402 52.274 94.1386 52.2867C94.8752 52.2994 95.5795 52.5912 96.1093 53.1032C96.6391 53.6152 96.9548 54.3092 96.9926 55.0449C96.9926 57.2095 95.4423 58.4145 93.6903 59.4741" fill="black"/>
<path d="M137.382 68.9739C137.384 68.9858 137.383 68.998 137.38 69.0095C137.376 69.021 137.371 69.0317 137.363 69.0408C137.355 69.0499 137.345 69.0572 137.334 69.0622C137.323 69.0672 137.311 69.0698 137.299 69.0698C137.287 69.0698 137.275 69.0672 137.265 69.0622C137.254 69.0572 137.244 69.0499 137.236 69.0408C137.228 69.0317 137.222 69.021 137.219 69.0095C137.216 68.998 137.215 68.9858 137.217 68.9739L132.935 40H123.984L119.747 68.9739C119.744 68.9982 119.731 69.0203 119.713 69.036C119.694 69.0518 119.67 69.0601 119.645 69.0594C119.635 69.0591 119.624 69.0567 119.614 69.0523C119.604 69.0478 119.595 69.0414 119.588 69.0335C119.58 69.0255 119.574 69.0162 119.571 69.0059C119.567 68.9957 119.565 68.9848 119.566 68.9739L117.337 40H107.903L113.915 79.408H125.012C125.056 78.9736 128.402 52.1461 128.402 52.1461C128.402 52.1237 128.411 52.1023 128.426 52.0863C128.442 52.0703 128.463 52.0611 128.486 52.0607C128.497 52.0604 128.508 52.0624 128.518 52.0667C128.528 52.0709 128.538 52.0773 128.545 52.0853C128.553 52.0933 128.559 52.1029 128.563 52.1134C128.567 52.1238 128.568 52.135 128.567 52.1461L132.737 79.408H144.054L149.143 40H139.369L137.382 68.9739Z" fill="black"/>
</svg>
