<svg width="200" height="120" viewBox="0 0 200 120" fill="none" xmlns="http://www.w3.org/2000/svg">
<path d="M100 25C93.0777 25 86.3108 27.0527 80.5551 30.8986C74.7993 34.7444 70.3133 40.2107 67.6642 46.6061C65.0152 53.0015 64.322 60.0388 65.6725 66.8282C67.023 73.6175 70.3564 79.8539 75.2513 84.7487C80.1461 89.6436 86.3825 92.977 93.1719 94.3275C99.9612 95.678 106.999 94.9848 113.394 92.3358C119.789 89.6867 125.256 85.2007 129.101 79.4449C132.947 73.6892 135 66.9223 135 60V60C135 50.7174 131.313 41.815 124.749 35.2513C118.185 28.6875 109.283 25 100 25V25ZM100 91.1023C91.767 91.09 83.8757 87.8093 78.0606 81.9812C72.2454 76.1531 68.9823 68.2545 68.9884 60.0215C68.9945 51.7885 72.2694 43.8948 78.0932 38.0753C83.917 32.2558 91.8131 28.9869 100.046 28.9869C108.279 28.9869 116.175 32.2558 121.999 38.0753C127.823 43.8948 131.098 51.7885 131.104 60.0215C131.11 68.2545 127.847 76.1531 122.032 81.9812C116.217 87.8093 108.325 91.09 100.092 91.1023H100Z" fill="black"/>
<path d="M125.404 74.0986L120.313 68.1613C120.246 68.0921 120.173 68.0303 120.093 67.9767C119.967 67.9109 119.827 67.8766 119.684 67.8766C119.542 67.8766 119.402 67.9109 119.276 67.9767C118.904 68.1582 118.495 68.2505 118.082 68.2462C117.669 68.242 117.262 68.1413 116.894 67.9522C116.527 67.7632 116.208 67.4909 115.964 67.1571C115.72 66.8233 115.558 66.4372 115.489 66.0295V66.0295C115.305 65.0532 114.913 64.1281 114.338 63.3176C113.764 62.507 113.021 61.8301 112.161 61.3331L109.883 60.0222L122.82 52.5577L121.229 49.7767L106.701 58.1545L104.948 57.1395V55.1222L119.489 46.7349L117.898 43.954L104.948 51.4281V48.7967C104.957 47.8093 104.753 46.8315 104.35 45.9302C103.946 45.029 103.352 44.2257 102.609 43.5754V43.5754C102.297 43.3068 102.051 42.9701 101.889 42.5913C101.728 42.2125 101.655 41.8017 101.677 41.3904C101.699 40.9792 101.815 40.5785 102.017 40.2193C102.218 39.86 102.499 39.5517 102.838 39.3181C102.954 39.2352 103.049 39.1259 103.114 38.9992C103.179 38.8725 103.214 38.732 103.214 38.5895C103.233 38.495 103.233 38.3976 103.214 38.3031L100.512 30.9436C100.471 30.8075 100.378 30.6932 100.253 30.6258C100.127 30.5585 99.9805 30.5434 99.8443 30.584C99.7596 30.6096 99.6827 30.6559 99.6205 30.7186C99.5583 30.7814 99.5127 30.8587 99.4879 30.9436L96.9106 38.3031C96.9011 38.3983 96.9011 38.4943 96.9106 38.5895C96.9106 38.7334 96.9461 38.8752 97.0137 39.0023C97.0814 39.1293 97.1793 39.2378 97.2988 39.3181C97.8874 39.7269 98.2897 40.3525 98.4174 41.0577C98.545 41.7628 98.3876 42.4898 97.9797 43.079C97.8489 43.2701 97.6926 43.4425 97.5152 43.5913C96.7619 44.2363 96.1577 45.0373 95.7446 45.9388C95.3314 46.8404 95.1192 47.821 95.1224 48.8127V51.444L82.0961 43.954L80.5052 46.7349L95.0429 55.1222V57.1363L93.2865 58.1513L78.7679 49.7545L77.177 52.5354L90.0729 59.9999L87.7947 61.3108C86.9362 61.814 86.1977 62.4983 85.6307 63.3159C85.0636 64.1336 84.6815 65.065 84.5111 66.0454V66.0454C84.4454 66.397 84.3109 66.7321 84.1151 67.0314C83.9194 67.3308 83.6663 67.5885 83.3706 67.7896C83.0748 67.9907 82.7422 68.1313 82.3918 68.2033C82.0415 68.2753 81.6804 68.2772 81.3293 68.209C81.0998 68.1676 80.8771 68.0947 80.6674 67.9927C80.5423 67.9269 80.4031 67.8925 80.2618 67.8925C80.1204 67.8925 79.9812 67.9269 79.8561 67.9927C79.7725 68.0433 79.6965 68.1054 79.6302 68.1772L74.5393 74.1145C74.4469 74.2263 74.4028 74.3702 74.4165 74.5146C74.4302 74.659 74.5007 74.792 74.6124 74.8845C74.6725 74.9352 74.743 74.972 74.8188 74.9923C74.8947 75.0127 74.9742 75.0161 75.0515 75.0022L82.7356 73.5672C82.8264 73.5441 82.9141 73.5099 82.9965 73.4654C83.1219 73.3943 83.2281 73.2937 83.3057 73.1722C83.3833 73.0508 83.4301 72.9122 83.442 72.7686C83.5128 72.056 83.8635 71.4008 84.4172 70.9467C84.9709 70.4927 85.6821 70.2771 86.3947 70.3472C86.6118 70.3695 86.8254 70.4176 87.0311 70.4904C87.9633 70.818 88.9556 70.9397 89.9394 70.8468C90.9232 70.754 91.8752 70.4489 92.7297 69.9527L95.0079 68.6417V83.5263H98.212V66.7231L99.9556 65.7208L101.699 66.7231V83.5104H104.9V68.5717L107.182 69.8827C108.037 70.3776 108.989 70.6817 109.972 70.7739C110.956 70.8662 111.948 70.7445 112.88 70.4172C113.554 70.175 114.297 70.2106 114.945 70.5161C115.593 70.8216 116.093 71.372 116.336 72.0463C116.409 72.252 116.458 72.4656 116.482 72.6827C116.487 72.8265 116.53 72.9665 116.605 73.0887C116.681 73.211 116.788 73.3112 116.915 73.3795C116.997 73.4245 117.085 73.4588 117.176 73.4813L124.857 74.9163C124.969 74.9431 125.086 74.933 125.192 74.8875C125.298 74.8419 125.386 74.7634 125.444 74.6636C125.502 74.5638 125.525 74.448 125.512 74.3336C125.498 74.2192 125.448 74.1122 125.369 74.0286L125.404 74.0986ZM95.0524 64.8904L90.7729 67.3499C90.3749 67.5631 89.9098 67.6136 89.4754 67.4908C89.041 67.368 88.6711 67.0816 88.4436 66.6917C88.2161 66.3017 88.1487 65.8388 88.2555 65.4002C88.3624 64.9616 88.6352 64.5815 89.0165 64.3399L93.2802 61.8677L95.0333 62.8827L95.0524 64.8904ZM98.2565 48.364C98.2565 47.8999 98.4409 47.4548 98.7691 47.1266C99.0973 46.7984 99.5424 46.614 100.007 46.614C100.471 46.614 100.916 46.7984 101.244 47.1266C101.572 47.4548 101.757 47.8999 101.757 48.364V53.2863L100 54.3013L98.2565 53.2863V48.364ZM102.005 61.174L100 62.3131L97.9956 61.174V58.8958L100 57.7536L102.005 58.8958V61.174ZM111.614 66.7136C111.38 67.1147 110.997 67.407 110.549 67.5263C110.1 67.6456 109.623 67.5822 109.221 67.3499L104.948 64.8904V62.8636L106.701 61.8486L110.965 64.324C111.366 64.5529 111.66 64.9318 111.783 65.3774C111.905 65.8231 111.845 66.2991 111.617 66.7008V66.7008L111.614 66.7136Z" fill="black"/>
</svg>
