<svg width="19" height="19" viewBox="0 0 19 19" fill="none" xmlns="http://www.w3.org/2000/svg">
<path d="M8.89001 18.7C8.80384 18.6276 8.73284 18.539 8.68112 18.4391C8.62941 18.3392 8.59798 18.2299 8.58868 18.1178C8.57939 18.0057 8.5924 17.8928 8.62695 17.7858C8.6615 17.6787 8.71693 17.5796 8.79001 17.494L15.438 10.937H1.45001C1.19823 10.9368 0.956843 10.8366 0.7789 10.6585C0.600957 10.4803 0.501007 10.2389 0.501007 9.98707V9.97706C0.501007 9.72528 0.600957 9.48368 0.7789 9.30555C0.956843 9.12742 1.19823 9.02725 1.45001 9.02699H15.375L8.798 2.542C8.72258 2.45389 8.6653 2.35178 8.62949 2.24146C8.59367 2.13115 8.58003 2.01479 8.58932 1.89918C8.59862 1.78357 8.63068 1.67093 8.68365 1.56776C8.73663 1.46458 8.80948 1.37291 8.89801 1.29798C9.05406 1.12082 9.27289 1.01135 9.50824 0.992684C9.74359 0.974021 9.97697 1.04766 10.159 1.19801L18.28 9.20606C18.4307 9.38194 18.5058 9.61031 18.4887 9.84132C18.4717 10.0723 18.3639 10.2871 18.189 10.439C18.2019 10.5463 18.1907 10.6553 18.1561 10.7577C18.1215 10.8601 18.0644 10.9535 17.989 11.031L10.115 18.7951C9.97436 18.9282 9.78661 19.0001 9.59299 18.995C9.32911 18.9923 9.07681 18.8864 8.89001 18.7Z" fill="#D0AD37"/>
</svg>
